<svg width="69" height="32" viewBox="0 0 69 32" fill="none" xmlns="http://www.w3.org/2000/svg">
<rect width="69" height="32" fill="#1E1E1E"/>
<rect width="69" height="32" rx="16" fill="#A8A0A0"/>
<path d="M20.312 21V9.72H21.976V19.576H27.56V21H20.312ZM28.8201 11.384V9.704H30.7081V11.384H28.8201ZM28.9641 21V13.192H30.5801V21H28.9641ZM35.1428 21L31.7828 13.192H33.5268L35.9108 19.128L38.3588 13.192H40.0068L36.5988 21H35.1428ZM44.6906 21.144C43.4106 21.144 42.4026 20.7867 41.6666 20.072C40.9306 19.3467 40.5626 18.36 40.5626 17.112C40.5626 16.312 40.7226 15.608 41.0426 15C41.3733 14.3813 41.8266 13.9013 42.4026 13.56C42.9786 13.2187 43.64 13.048 44.3866 13.048C45.464 13.048 46.312 13.3947 46.9306 14.088C47.5493 14.7707 47.8586 15.7147 47.8586 16.92V17.464H42.1306C42.248 19.0853 43.1066 19.896 44.7066 19.896C45.1546 19.896 45.592 19.8267 46.0186 19.688C46.456 19.5493 46.8666 19.32 47.2506 19L47.7306 20.12C47.3786 20.44 46.9253 20.6907 46.3706 20.872C45.816 21.0533 45.256 21.144 44.6906 21.144ZM44.4506 14.184C43.7786 14.184 43.2453 14.392 42.8506 14.808C42.456 15.224 42.216 15.7787 42.1306 16.472H46.4986C46.4666 15.7467 46.2746 15.1867 45.9226 14.792C45.5706 14.3867 45.08 14.184 44.4506 14.184Z" fill="#100F0F"/>
</svg>
